<svg width="16" height="16" viewBox="0 0 16 16" fill="none" xmlns="http://www.w3.org/2000/svg">
<path fill-rule="evenodd" clip-rule="evenodd" d="M8 15C9.85652 15 11.637 14.2625 12.9497 12.9497C14.2625 11.637 15 9.85652 15 8C15 6.14348 14.2625 4.36301 12.9497 3.05025C11.637 1.7375 9.85652 1 8 1C6.14348 1 4.36301 1.7375 3.05025 3.05025C1.7375 4.36301 1 6.14348 1 8C1 9.85652 1.7375 11.637 3.05025 12.9497C4.36301 14.2625 6.14348 15 8 15ZM8 16C10.1217 16 12.1566 15.1571 13.6569 13.6569C15.1571 12.1566 16 10.1217 16 8C16 5.87827 15.1571 3.84344 13.6569 2.34315C12.1566 0.842855 10.1217 0 8 0C5.87827 0 3.84344 0.842855 2.34315 2.34315C0.842855 3.84344 0 5.87827 0 8C0 10.1217 0.842855 12.1566 2.34315 13.6569C3.84344 15.1571 5.87827 16 8 16Z" fill="white"/>
<path fill-rule="evenodd" clip-rule="evenodd" d="M8.35401 11.354C8.40057 11.3076 8.43751 11.2524 8.46272 11.1916C8.48793 11.1309 8.5009 11.0658 8.5009 11C8.5009 10.9342 8.48793 10.8691 8.46272 10.8084C8.43751 10.7476 8.40057 10.6924 8.35401 10.646L5.70701 8L8.35401 5.354C8.4005 5.30751 8.43737 5.25232 8.46253 5.19158C8.48769 5.13084 8.50064 5.06574 8.50064 5C8.50064 4.93425 8.48769 4.86915 8.46253 4.80841C8.43737 4.74768 8.4005 4.69249 8.35401 4.646C8.30752 4.59951 8.25233 4.56263 8.19159 4.53748C8.13085 4.51232 8.06575 4.49937 8.00001 4.49937C7.93426 4.49937 7.86916 4.51232 7.80842 4.53748C7.74769 4.56263 7.6925 4.59951 7.64601 4.646L4.64601 7.646C4.59945 7.69244 4.5625 7.74762 4.5373 7.80836C4.51209 7.86911 4.49911 7.93423 4.49911 8C4.49911 8.06577 4.51209 8.13089 4.5373 8.19163C4.5625 8.25238 4.59945 8.30755 4.64601 8.354L7.64601 11.354C7.69245 11.4006 7.74763 11.4375 7.80837 11.4627C7.86912 11.4879 7.93424 11.5009 8.00001 11.5009C8.06578 11.5009 8.1309 11.4879 8.19164 11.4627C8.25239 11.4375 8.30756 11.4006 8.35401 11.354Z" fill="white"/>
<path fill-rule="evenodd" clip-rule="evenodd" d="M11.5 8C11.5 7.86739 11.4473 7.74021 11.3536 7.64645C11.2598 7.55268 11.1326 7.5 11 7.5H6C5.86739 7.5 5.74021 7.55268 5.64645 7.64645C5.55268 7.74021 5.5 7.86739 5.5 8C5.5 8.13261 5.55268 8.25979 5.64645 8.35355C5.74021 8.44732 5.86739 8.5 6 8.5H11C11.1326 8.5 11.2598 8.44732 11.3536 8.35355C11.4473 8.25979 11.5 8.13261 11.5 8Z" fill="white"/>
</svg>
